<svg width="24" height="24" viewBox="0 0 24 24" fill="none" xmlns="http://www.w3.org/2000/svg">
<path d="M14.7 16.2C14.9387 16.2 15.1676 16.2948 15.3364 16.4636C15.5052 16.6324 15.6 16.8613 15.6 17.1C15.6 17.3387 15.5052 17.5676 15.3364 17.7364C15.1676 17.9052 14.9387 18 14.7 18H9.29998C9.06128 18 8.83236 17.9052 8.66358 17.7364C8.4948 17.5676 8.39998 17.3387 8.39998 17.1C8.39998 16.8613 8.4948 16.6324 8.66358 16.4636C8.83236 16.2948 9.06128 16.2 9.29998 16.2H14.7ZM17.1 11.1C17.3387 11.1 17.5676 11.1948 17.7364 11.3636C17.9052 11.5324 18 11.7613 18 12C18 12.2387 17.9052 12.4676 17.7364 12.6364C17.5676 12.8052 17.3387 12.9 17.1 12.9H6.89998C6.66128 12.9 6.43236 12.8052 6.26358 12.6364C6.0948 12.4676 5.99998 12.2387 5.99998 12C5.99998 11.7613 6.0948 11.5324 6.26358 11.3636C6.43236 11.1948 6.66128 11.1 6.89998 11.1H17.1ZM19.5 6C19.7387 6 19.9676 6.09482 20.1364 6.2636C20.3052 6.43239 20.4 6.66131 20.4 6.9C20.4 7.13869 20.3052 7.36761 20.1364 7.5364C19.9676 7.70518 19.7387 7.8 19.5 7.8H4.49998C4.26128 7.8 4.03236 7.70518 3.86358 7.5364C3.6948 7.36761 3.59998 7.13869 3.59998 6.9C3.59998 6.66131 3.6948 6.43239 3.86358 6.2636C4.03236 6.09482 4.26128 6 4.49998 6H19.5Z" fill="#3B3D4F"/>
</svg>
