<svg width="25" height="24" viewBox="0 0 25 24" fill="none" xmlns="http://www.w3.org/2000/svg">
<path d="M12.4756 2C12.3157 2.00546 12.1617 2.06192 12.0361 2.16113L4.92969 7.75976C4.02774 8.47058 3.5 9.55675 3.5 10.7051V20.25C3.5 20.9318 4.0682 21.5 4.75 21.5H9.75C10.4318 21.5 11 20.9318 11 20.25V15.25C11 15.1025 11.1025 15 11.25 15H13.75C13.8975 15 14 15.1025 14 15.25V20.25C14 20.9318 14.5682 21.5 15.25 21.5H20.25C20.9318 21.5 21.5 20.9318 21.5 20.25V10.7051C21.5 9.55675 20.9723 8.47058 20.0703 7.75976L12.9639 2.16113C12.8252 2.05157 12.6522 1.9945 12.4756 2Z" fill="#3B3D4F"/>
</svg>
