<svg width="25" height="24" viewBox="0 0 25 24" fill="none" xmlns="http://www.w3.org/2000/svg">
<path d="M2.75 6.75C2.75 5.784 3.534 5 4.5 5H18C18.966 5 19.75 5.784 19.75 6.75V15.25C19.75 15.7141 19.5656 16.1592 19.2374 16.4874C18.9092 16.8156 18.4641 17 18 17H4.5C4.03587 17 3.59075 16.8156 3.26256 16.4874C2.93437 16.1592 2.75 15.7141 2.75 15.25V6.75ZM5.75 6.25V7.25C5.75 7.44891 5.67098 7.63968 5.53033 7.78033C5.38968 7.92098 5.19891 8 5 8H4V9.5H5C5.29547 9.5 5.58806 9.4418 5.86104 9.32873C6.13402 9.21566 6.38206 9.04992 6.59099 8.84099C6.79992 8.63206 6.96566 8.38402 7.07873 8.11104C7.1918 7.83805 7.25 7.54547 7.25 7.25V6.25H5.75ZM11.25 13.5C11.8467 13.5 12.419 13.2629 12.841 12.841C13.2629 12.419 13.5 11.8467 13.5 11.25C13.5 10.6533 13.2629 10.081 12.841 9.65901C12.419 9.23705 11.8467 9 11.25 9C10.6533 9 10.081 9.23705 9.65901 9.65901C9.23705 10.081 9 10.6533 9 11.25C9 11.8467 9.23705 12.419 9.65901 12.841C10.081 13.2629 10.6533 13.5 11.25 13.5ZM4 14H5C5.19891 14 5.38968 14.079 5.53033 14.2197C5.67098 14.3603 5.75 14.5511 5.75 14.75V15.75H7.25V14.75C7.25 14.1533 7.01295 13.581 6.59099 13.159C6.16903 12.7371 5.59674 12.5 5 12.5H4V14ZM16.75 14.75C16.75 14.5511 16.829 14.3603 16.9697 14.2197C17.1103 14.079 17.3011 14 17.5 14H18.5V12.5H17.5C16.9033 12.5 16.331 12.7371 15.909 13.159C15.4871 13.581 15.25 14.1533 15.25 14.75V15.75H16.75V14.75ZM16.75 7.25V6.25H15.25V7.25C15.25 7.54547 15.3082 7.83805 15.4213 8.11104C15.5343 8.38402 15.7001 8.63206 15.909 8.84099C16.331 9.26295 16.9033 9.5 17.5 9.5H18.5V8H17.5C17.3011 8 17.1103 7.92098 16.9697 7.78033C16.829 7.63968 16.75 7.44891 16.75 7.25Z" fill="#3B3D4F"/>
<path d="M5.151 18.5C5.41431 18.9563 5.79315 19.3351 6.2494 19.5984C6.70565 19.8618 7.22321 20.0003 7.75 20H18C18.6238 20 19.2415 19.8771 19.8177 19.6384C20.394 19.3997 20.9177 19.0498 21.3588 18.6088C21.7998 18.1677 22.1497 17.644 22.3884 17.0677C22.6271 16.4915 22.75 15.8738 22.75 15.25V10C22.75 8.89 22.147 7.92 21.25 7.401V15.25C21.25 16.112 20.9076 16.9386 20.2981 17.5481C19.6886 18.1576 18.862 18.5 18 18.5H5.151Z" fill="#3B3D4F"/>
</svg>
