<svg width="25" height="24" viewBox="0 0 25 24" fill="none" xmlns="http://www.w3.org/2000/svg">
<path d="M15.254 10C16.22 10 17.004 10.784 17.004 11.75V16.499C17.004 17.6927 16.5298 18.8376 15.6857 19.6817C14.8416 20.5258 13.6967 21 12.503 21C11.3093 21 10.1644 20.5258 9.32031 19.6817C8.47621 18.8376 8.002 17.6927 8.002 16.499V11.75C8.002 10.784 8.785 10 9.752 10H15.254ZM12.5 3C13.2956 3 14.0587 3.31607 14.6213 3.87868C15.1839 4.44129 15.5 5.20435 15.5 6C15.5 6.79565 15.1839 7.55871 14.6213 8.12132C14.0587 8.68393 13.2956 9 12.5 9C11.7044 9 10.9413 8.68393 10.3787 8.12132C9.81607 7.55871 9.5 6.79565 9.5 6C9.5 5.20435 9.81607 4.44129 10.3787 3.87868C10.9413 3.31607 11.7044 3 12.5 3ZM19 4C19.663 4 20.2989 4.26339 20.7678 4.73223C21.2366 5.20107 21.5 5.83696 21.5 6.5C21.5 7.16304 21.2366 7.79893 20.7678 8.26777C20.2989 8.73661 19.663 9 19 9C18.337 9 17.7011 8.73661 17.2322 8.26777C16.7634 7.79893 16.5 7.16304 16.5 6.5C16.5 5.83696 16.7634 5.20107 17.2322 4.73223C17.7011 4.26339 18.337 4 19 4ZM6 4C6.66304 4 7.29893 4.26339 7.76777 4.73223C8.23661 5.20107 8.5 5.83696 8.5 6.5C8.5 7.16304 8.23661 7.79893 7.76777 8.26777C7.29893 8.73661 6.66304 9 6 9C5.33696 9 4.70107 8.73661 4.23223 8.26777C3.76339 7.79893 3.5 7.16304 3.5 6.5C3.5 5.83696 3.76339 5.20107 4.23223 4.73223C4.70107 4.26339 5.33696 4 6 4Z" fill="#3B3D4F"/>
<path d="M4.25 10H7.631C7.2782 10.4261 7.06274 10.949 7.013 11.5L7.082 17.432C7.167 17.936 7.322 18.417 7.535 18.864C6.94228 19.0226 6.32103 19.0427 5.71929 18.9228C5.11756 18.8029 4.55145 18.5463 4.06475 18.1727C3.57805 17.7991 3.18379 17.3185 2.91246 16.7682C2.64114 16.2179 2.50001 15.6126 2.5 14.999V11.75C2.5 10.784 3.284 10 4.25 10Z" fill="#3B3D4F"/>
<path d="M17.375 10H20.75C21.716 10 22.5 10.784 22.5 11.75V15C22.5001 15.6132 22.3593 16.2182 22.0884 16.7682C21.8175 17.3183 21.4237 17.7987 20.9376 18.1724C20.4514 18.546 19.8858 18.8029 19.2846 18.9232C18.6833 19.0435 18.0625 19.0239 17.47 18.866C17.684 18.418 17.839 17.937 17.925 17.433L17.993 11.5C17.9433 10.949 17.7278 10.4261 17.375 10Z" fill="#3B3D4F"/>
</svg>
