<svg width="25" height="24" viewBox="0 0 25 24" fill="none" xmlns="http://www.w3.org/2000/svg">
<path d="M12.5 2C11.7116 2 10.9513 2.09971 10.2256 2.26855C10.0743 2.30388 9.93763 2.38534 9.83459 2.50167C9.73155 2.61801 9.66719 2.76347 9.6504 2.91797L9.49122 4.36914C9.43917 4.84468 9.16447 5.26543 8.75001 5.50488C8.33638 5.74386 7.83432 5.77033 7.3965 5.57812L6.06251 4.99121C5.92033 4.92864 5.76223 4.91176 5.61004 4.9429C5.45785 4.97403 5.31909 5.05165 5.2129 5.16504C4.17666 6.26979 3.38135 7.60753 2.9297 9.10059C2.88471 9.24919 2.88695 9.40809 2.9361 9.55537C2.98525 9.70265 3.07889 9.83105 3.20411 9.92285L4.38673 10.79C4.77291 11.074 5.00001 11.5214 5.00001 12C5.00001 12.4789 4.77292 12.9267 4.38673 13.21L3.20411 14.0762C3.07889 14.168 2.98525 14.2964 2.9361 14.4437C2.88695 14.5909 2.88471 14.7498 2.9297 14.8984C3.3813 16.3913 4.17598 17.7301 5.2129 18.835C5.3192 18.9482 5.45802 19.0256 5.6102 19.0566C5.76239 19.0875 5.92043 19.0705 6.06251 19.0078L7.39552 18.4209C7.83356 18.2283 8.3361 18.256 8.75001 18.4951C9.16447 18.7346 9.43917 19.1553 9.49122 19.6309L9.6504 21.082C9.66732 21.2362 9.73162 21.3814 9.83446 21.4975C9.9373 21.6136 10.0736 21.695 10.2246 21.7305C10.9507 21.8999 11.7116 22 12.5 22C13.2885 22 14.0487 21.9003 14.7744 21.7314C14.9258 21.6961 15.0624 21.6147 15.1654 21.4983C15.2685 21.382 15.3328 21.2365 15.3496 21.082L15.5088 19.6309C15.5609 19.1553 15.8356 18.7346 16.25 18.4951C16.6636 18.2561 17.1657 18.2287 17.6035 18.4209L18.9375 19.0078C19.0796 19.0705 19.2376 19.0875 19.3898 19.0566C19.542 19.0256 19.6808 18.9482 19.7871 18.835C20.8234 17.7302 21.6187 16.3915 22.0703 14.8984C22.1153 14.7498 22.1131 14.5909 22.0639 14.4437C22.0148 14.2964 21.9211 14.168 21.7959 14.0762L20.6133 13.21C20.2271 12.9267 20 12.4789 20 12C20 11.5211 20.2271 11.0733 20.6133 10.79L21.7959 9.92383C21.9211 9.83203 22.0148 9.70363 22.0639 9.55635C22.1131 9.40907 22.1153 9.25017 22.0703 9.10156C21.6187 7.60851 20.8234 6.26979 19.7871 5.16504C19.6808 5.05182 19.542 4.97438 19.3898 4.94342C19.2376 4.91246 19.0796 4.9295 18.9375 4.99219L17.6035 5.5791C17.1657 5.77131 16.6636 5.74386 16.25 5.50488C15.8356 5.26543 15.5609 4.84468 15.5088 4.36914L15.3496 2.91797C15.3327 2.76378 15.2684 2.61862 15.1656 2.50249C15.0627 2.38636 14.9264 2.30497 14.7754 2.26953C14.0493 2.10008 13.2885 2 12.5 2ZM12.5 9.5C13.8896 9.5 15 10.6104 15 12C15 13.3896 13.8896 14.5 12.5 14.5C11.1104 14.5 10 13.3896 10 12C10 10.6104 11.1104 9.5 12.5 9.5Z" fill="#3B3D4F"/>
</svg>
