<svg width="25" height="24" viewBox="0 0 25 24" fill="none" xmlns="http://www.w3.org/2000/svg">
<path d="M12.4756 1.99987C12.3157 2.00534 12.1617 2.0618 12.0361 2.16101L4.92969 7.75964C4.02774 8.47046 3.5 9.55663 3.5 10.705V20.2499C3.5 20.9317 4.0682 21.4999 4.75 21.4999H9.75C10.4318 21.4999 11 20.9317 11 20.2499V15.2499C11 15.1024 11.1025 14.9999 11.25 14.9999H13.75C13.8975 14.9999 14 15.1024 14 15.2499V20.2499C14 20.9317 14.5682 21.4999 15.25 21.4999H20.25C20.9318 21.4999 21.5 20.9317 21.5 20.2499V10.705C21.5 9.55663 20.9723 8.47046 20.0703 7.75964L12.9639 2.16101C12.8252 2.05145 12.6522 1.99438 12.4756 1.99987Z" fill="#3B3D4F" fill-opacity="0.6"/>
</svg>
