<svg width="24" height="24" viewBox="0 0 24 24" fill="none" xmlns="http://www.w3.org/2000/svg">
<path d="M12.8421 11.5H3M3 11.5L6.2807 8.36841M3 11.5L6.2807 14.6316" stroke="#3B3D4F" stroke-width="2" stroke-linecap="round" stroke-linejoin="round"/>
<path d="M7.55357 4.53721C8.83075 3.64292 10.3293 3.11714 11.8853 3.01741C13.4412 2.91768 14.9946 3.24783 16.3755 3.97174C17.7564 4.69566 18.9116 5.78544 19.7147 7.12186C20.5178 8.45827 20.9378 9.98983 20.9288 11.549C20.9198 13.1081 20.4822 14.6347 19.6638 15.9618C18.8454 17.2888 17.6777 18.3653 16.2885 19.0732C14.8994 19.7812 13.3423 20.0934 11.7876 19.9758C10.2329 19.8581 8.74049 19.3151 7.47369 18.4062" stroke="#3B3D4F" stroke-width="2" stroke-linecap="round"/>
</svg>
