<svg width="25" height="24" viewBox="0 0 25 24" fill="none" xmlns="http://www.w3.org/2000/svg">
<path d="M18.6035 5.5L19.75 6.64645C19.9452 6.84171 19.9452 7.15829 19.75 7.35355L18.6035 8.5C18.3274 8.77614 18.3274 9.22386 18.6035 9.5C18.8796 9.77614 19.3274 9.77614 19.6035 9.5L21.75 7.35355C21.9452 7.15829 21.9452 6.84171 21.75 6.64645L19.6035 4.5C19.3274 4.22386 18.8796 4.22386 18.6035 4.5C18.3274 4.77614 18.3274 5.22386 18.6035 5.5Z" fill="#3B3D4F"/>
<path d="M2.75008 5C2.75008 3.89543 3.64551 3 4.75008 3H13.25C14.3545 3 15.25 3.89543 15.25 5V6H2.75008V5Z" fill="#3B3D4F"/>
<path d="M15.25 10H10.2501C8.25008 10.5 7.75008 12.5 7.75008 12.5H4.75008C3.64551 12.5 2.75008 11.6046 2.75008 10.5V7.5H15.25V10Z" fill="#3B3D4F"/>
<path d="M9.25004 13.5001C9.24999 12.3955 10.1454 11.5 11.25 11.5H19.75C20.8546 11.5 21.75 12.3954 21.75 13.4999L21.7501 14.5H9.25008L9.25004 13.5001Z" fill="#3B3D4F"/>
<path d="M21.75 19C21.75 20.1046 20.8546 21 19.75 21H11.25C10.1454 21 9.24998 20.1045 9.25 19L9.25008 16H21.7501L21.75 19Z" fill="#3B3D4F"/>
<path d="M5.89653 16L4.75008 17.1464C4.55482 17.3417 4.55482 17.6583 4.75008 17.8536L5.89653 19C6.17267 19.2761 6.17267 19.7239 5.89653 20C5.62039 20.2761 5.17267 20.2761 4.89653 20L2.75008 17.8536C2.55482 17.6583 2.55482 17.3417 2.75008 17.1464L4.89653 15C5.17267 14.7239 5.62039 14.7239 5.89653 15C6.17267 15.2761 6.17267 15.7239 5.89653 16Z" fill="#3B3D4F"/>
</svg>
