<svg width="24" height="24" viewBox="0 0 24 24" fill="none" xmlns="http://www.w3.org/2000/svg">
<path d="M12 2.99999C13.8149 3.00002 15.5874 3.54874 17.0848 4.57414C18.5823 5.59954 19.7347 7.0537 20.3909 8.74578C21.0472 10.4379 21.1765 12.2888 20.7619 14.0557C20.3474 15.8226 19.4083 17.4229 18.068 18.6466C16.7277 19.8703 15.0488 20.6601 13.2515 20.9125C11.4543 21.1649 9.62274 20.8681 7.99722 20.0609C6.3717 19.2538 5.02819 17.9741 4.14299 16.3897C3.25779 14.8053 2.87226 12.9904 3.03701 11.183C3.04883 11.0522 3.0863 10.925 3.14727 10.8087C3.20824 10.6924 3.29153 10.5892 3.39237 10.5051C3.49322 10.4209 3.60965 10.3575 3.73501 10.3184C3.86037 10.2792 3.99222 10.2652 4.12301 10.277C4.25381 10.2888 4.381 10.3263 4.49732 10.3872C4.61363 10.4482 4.7168 10.5315 4.80093 10.6323C4.88506 10.7332 4.9485 10.8496 4.98764 10.975C5.02677 11.1003 5.04083 11.2322 5.02901 11.363C4.93286 12.3857 5.0642 13.417 5.41361 14.3829C5.76302 15.3488 6.32185 16.2255 7.05001 16.95C7.42501 17.325 7.84201 17.657 8.29201 17.938C9.40652 18.6338 10.6944 19.0018 12.0082 19.0001C13.3221 18.9983 14.6089 18.6269 15.7216 17.9281C16.8342 17.2294 17.7278 16.2317 18.3001 15.049C18.8723 13.8663 19.1002 12.5464 18.9576 11.2403C18.815 9.93423 18.3077 8.69463 17.4937 7.6633C16.6797 6.63197 15.5919 5.85054 14.3547 5.40838C13.1174 4.96622 11.7808 4.88119 10.4975 5.16301C9.21419 5.44482 8.03613 6.08211 7.09801 7.00199L8.49801 7.00299C8.75435 7.00124 9.00157 7.09799 9.18862 7.27327C9.37567 7.44856 9.48827 7.68898 9.50316 7.94489C9.51804 8.2008 9.43409 8.45265 9.26862 8.64844C9.10316 8.84423 8.86882 8.969 8.61401 8.99699L8.49801 9.00299H4.49601C4.25108 9.00296 4.01468 8.91303 3.83164 8.75027C3.64861 8.58751 3.53167 8.36324 3.50301 8.11999L3.49601 8.00299V4.00299C3.49426 3.74665 3.59102 3.49943 3.7663 3.31238C3.94158 3.12533 4.182 3.01273 4.43791 2.99784C4.69382 2.98296 4.94568 3.06691 5.14147 3.23238C5.33726 3.39784 5.46203 3.63218 5.49001 3.88699L5.49601 4.00399V5.77799C6.33574 4.89894 7.34515 4.19948 8.46312 3.72197C9.58108 3.24447 10.7843 2.99885 12 2.99999ZM11.25 6.99999C11.4313 7 11.6064 7.06563 11.7429 7.18476C11.8795 7.30388 11.9684 7.46843 11.993 7.64799L12 7.74999V12H14.25C14.44 12 14.623 12.0722 14.7618 12.202C14.9007 12.3317 14.9851 12.5093 14.998 12.6989C15.011 12.8885 14.9515 13.0759 14.8316 13.2233C14.7117 13.3707 14.5403 13.4671 14.352 13.493L14.25 13.5H11.25C11.0688 13.5 10.8937 13.4343 10.7571 13.3152C10.6205 13.1961 10.5317 13.0315 10.507 12.852L10.5 12.75V7.74999C10.5 7.55108 10.579 7.36031 10.7197 7.21966C10.8603 7.07901 11.0511 6.99999 11.25 6.99999Z" fill="#3B3D4F"/>
</svg>
