<svg width="24" height="24" viewBox="0 0 24 24" fill="none" xmlns="http://www.w3.org/2000/svg">
<path d="M8.29308 4.29303C8.10561 4.48056 8.00029 4.73487 8.00029 5.00003C8.00029 5.26519 8.10561 5.5195 8.29308 5.70703L14.5861 12L8.29308 18.293C8.19757 18.3853 8.12139 18.4956 8.06898 18.6176C8.01657 18.7396 7.98898 18.8709 7.98783 19.0036C7.98668 19.1364 8.01198 19.2681 8.06226 19.391C8.11254 19.5139 8.18679 19.6255 8.28069 19.7194C8.37458 19.8133 8.48623 19.8876 8.60913 19.9379C8.73202 19.9881 8.8637 20.0134 8.99648 20.0123C9.12926 20.0111 9.26048 19.9835 9.38249 19.9311C9.50449 19.8787 9.61483 19.8025 9.70708 19.707L16.7071 12.707C16.8946 12.5195 16.9999 12.2652 16.9999 12C16.9999 11.7349 16.8946 11.4806 16.7071 11.293L9.70708 4.29303C9.51955 4.10556 9.26525 4.00024 9.00008 4.00024C8.73492 4.00024 8.48061 4.10556 8.29308 4.29303Z" fill="#3B3D4F" fill-opacity="0.7"/>
</svg>
