<svg width="25" height="24" viewBox="0 0 25 24" fill="none" xmlns="http://www.w3.org/2000/svg">
<path d="M15 15C15.966 15 16.75 15.784 16.75 16.75L16.749 17.712C16.866 19.902 15.238 21.009 12.317 21.009C9.407 21.009 7.75 19.919 7.75 17.75V16.75C7.75 15.784 8.534 15 9.5 15H15ZM4 10H8.376C8.20152 10.679 8.20823 11.3919 8.39546 12.0675C8.5827 12.743 8.9439 13.3577 9.443 13.85L9.605 14.001L9.5 14C8.89983 13.9998 8.31606 14.1959 7.83778 14.5585C7.35949 14.921 7.01294 15.4301 6.851 16.008L6.817 16.009C3.907 16.009 2.25 14.919 2.25 12.75V11.75C2.25 10.784 3.034 10 4 10ZM20.5 10C21.466 10 22.25 10.784 22.25 11.75L22.249 12.712C22.366 14.902 20.738 16.009 17.817 16.009L17.648 16.007C17.4943 15.4623 17.1765 14.9781 16.738 14.6203C16.2995 14.2625 15.7615 14.0484 15.197 14.007L15 14L14.895 14.001C15.4501 13.5134 15.8589 12.8813 16.0759 12.175C16.2929 11.4688 16.3096 10.7162 16.124 10.001L20.5 10ZM12.25 8C12.644 8 13.0341 8.0776 13.3981 8.22836C13.762 8.37913 14.0927 8.6001 14.3713 8.87868C14.6499 9.15726 14.8709 9.48797 15.0216 9.85195C15.1724 10.2159 15.25 10.606 15.25 11C15.25 11.394 15.1724 11.7841 15.0216 12.1481C14.8709 12.512 14.6499 12.8427 14.3713 13.1213C14.0927 13.3999 13.762 13.6209 13.3981 13.7716C13.0341 13.9224 12.644 14 12.25 14C11.4544 14 10.6913 13.6839 10.1287 13.1213C9.56607 12.5587 9.25 11.7956 9.25 11C9.25 10.2044 9.56607 9.44129 10.1287 8.87868C10.6913 8.31607 11.4544 8 12.25 8ZM6.75 3C7.54565 3 8.30871 3.31607 8.87132 3.87868C9.43393 4.44129 9.75 5.20435 9.75 6C9.75 6.79565 9.43393 7.55871 8.87132 8.12132C8.30871 8.68393 7.54565 9 6.75 9C5.95435 9 5.19129 8.68393 4.62868 8.12132C4.06607 7.55871 3.75 6.79565 3.75 6C3.75 5.20435 4.06607 4.44129 4.62868 3.87868C5.19129 3.31607 5.95435 3 6.75 3ZM17.75 3C18.5456 3 19.3087 3.31607 19.8713 3.87868C20.4339 4.44129 20.75 5.20435 20.75 6C20.75 6.79565 20.4339 7.55871 19.8713 8.12132C19.3087 8.68393 18.5456 9 17.75 9C16.9544 9 16.1913 8.68393 15.6287 8.12132C15.0661 7.55871 14.75 6.79565 14.75 6C14.75 5.20435 15.0661 4.44129 15.6287 3.87868C16.1913 3.31607 16.9544 3 17.75 3Z" fill="#3B3D4F"/>
</svg>
