<svg width="25" height="24" viewBox="0 0 25 24" fill="none" xmlns="http://www.w3.org/2000/svg">
<path fill-rule="evenodd" clip-rule="evenodd" d="M19.75 5H20.5C21.0701 4.99993 21.619 5.2163 22.0358 5.60537C22.4525 5.99444 22.706 6.52721 22.745 7.096L22.75 7.25V16.75C22.7501 17.3201 22.5337 17.869 22.1446 18.2858C21.7556 18.7025 21.2228 18.956 20.654 18.995L20.5 19H19.75V5ZM5.75 19H5C4.42987 19.0001 3.88098 18.7837 3.46425 18.3946C3.04751 18.0056 2.79402 17.4728 2.755 16.904L2.75 16.75V7.25C2.74993 6.67987 2.9663 6.13098 3.35537 5.71425C3.74444 5.29751 4.27721 5.04402 4.846 5.005L5 5H5.75V19Z" fill="#3B3D4F"/>
<path fill-rule="evenodd" clip-rule="evenodd" d="M18.75 19.75C18.7501 20.3201 18.5337 20.869 18.1446 21.2858C17.7556 21.7025 17.2228 21.956 16.654 21.995L16.5 22H9C8.42987 22.0001 7.88098 21.7837 7.46425 21.3946C7.04751 21.0056 6.79402 20.4728 6.755 19.904L6.75 19.75V4.25C6.74993 3.67987 6.9663 3.13098 7.35537 2.71425C7.74444 2.29751 8.27721 2.04402 8.846 2.005L9 2H16.5C17.0701 1.99993 17.619 2.2163 18.0358 2.60537C18.4525 2.99444 18.706 3.52721 18.745 4.096L18.75 4.25V19.75ZM9.96967 7.21967C10.1103 7.07902 10.3011 7 10.5 7H15C15.1989 7 15.3897 7.07902 15.5303 7.21967C15.671 7.36032 15.75 7.55109 15.75 7.75C15.75 7.94891 15.671 8.13968 15.5303 8.28033C15.3897 8.42098 15.1989 8.5 15 8.5H10.5C10.3011 8.5 10.1103 8.42098 9.96967 8.28033C9.82902 8.13968 9.75 7.94891 9.75 7.75C9.75 7.55109 9.82902 7.36032 9.96967 7.21967ZM10.5 12.5C10.086 12.5 9.75 12.164 9.75 11.75C9.75 11.5511 9.82902 11.3603 9.96967 11.2197C10.1103 11.079 10.3011 11 10.5 11H15C15.1989 11 15.3897 11.079 15.5303 11.2197C15.671 11.3603 15.75 11.5511 15.75 11.75C15.75 11.9489 15.671 12.1397 15.5303 12.2803C15.3897 12.421 15.1989 12.5 15 12.5H10.5ZM9.96967 15.2197C10.1103 15.079 10.3011 15 10.5 15H15C15.1989 15 15.3897 15.079 15.5303 15.2197C15.671 15.3603 15.75 15.5511 15.75 15.75C15.75 15.9489 15.671 16.1397 15.5303 16.2803C15.3897 16.421 15.1989 16.5 15 16.5H10.5C10.3011 16.5 10.1103 16.421 9.96967 16.2803C9.82902 16.1397 9.75 15.9489 9.75 15.75C9.75 15.5511 9.82902 15.3603 9.96967 15.2197Z" fill="#3B3D4F"/>
</svg>
