<svg width="25" height="24" viewBox="0 0 25 24" fill="none" xmlns="http://www.w3.org/2000/svg">
<path d="M10.75 4.25C10.9489 4.25 11.1397 4.32902 11.2803 4.46967C11.421 4.61032 11.5 4.80109 11.5 5V13H19.5C19.6812 13 19.8563 13.0656 19.9929 13.1848C20.1295 13.3039 20.2184 13.4684 20.243 13.648L20.25 13.75C20.25 18.72 16.22 22.25 11.25 22.25C8.86305 22.25 6.57387 21.3018 4.88604 19.614C3.19821 17.9261 2.25 15.6369 2.25 13.25C2.25 8.28 5.78 4.25 10.75 4.25ZM13.75 1.75C16.1369 1.75 18.4261 2.69821 20.114 4.38604C21.8018 6.07387 22.75 8.36305 22.75 10.75C22.75 10.9489 22.671 11.1397 22.5303 11.2803C22.3897 11.421 22.1989 11.5 22 11.5H13.75C13.5511 11.5 13.3603 11.421 13.2197 11.2803C13.079 11.1397 13 10.9489 13 10.75V2.5C13 2.30109 13.079 2.11032 13.2197 1.96967C13.3603 1.82902 13.5511 1.75 13.75 1.75Z" fill="#3B3D4F"/>
</svg>
